# xmcd
#
# Track frame offsets:
#	150
#	24142
#	56727
#	79277
#	94735
#	108817
#	121662
#	144887
#	160150
#	180875
#	193455
#	229232
#
# Disc length: 3336 seconds
#
# Revision: 0
# Processed by: cddbd v1.4PL0 Copyright (c) Steve Scherf et al.
# Submitted via: audiograbber 1.81.03
#
DISCID=8e0d060c
DTITLE=Lousiana Red - The Rising Sun Collection
DYEAR=1980
DGENRE=Blues
TTITLE0=Johnson - Sweet Home Chicago
TTITLE1=King - Sweet Little Angel
TTITLE2=Terry, McGhee - King Bee
TTITLE3=Terry - I'm Gonna get on My Feets Afterawhile
TTITLE4=McGhee - Old Ja Bo
TTITLE5=Terry - I've Never Felt Like this Before
TTITLE6=Leadbelly - Good Morning Blues
TTITLE7=McGhee - My Father's Words
TTITLE8=McGhee, Hopkins - Walk On
TTITLE9=Hopkins - Lightnin's Blues
TTITLE10=Hopkins - Blues ain't Nothin but a Feeling
TTITLE11=Jones - Trouble in Mind
EXTD=
EXTT0=
EXTT1=
EXTT2=
EXTT3=
EXTT4=
EXTT5=
EXTT6=
EXTT7=
EXTT8=
EXTT9=
EXTT10=
EXTT11=
PLAYORDER=
